<?xml version="1.0" encoding="UTF-8" standalone="no"?>
<svg
   xmlns:d="https://loading.io/stock/"
   xmlns:dc="http://purl.org/dc/elements/1.1/"
   xmlns:cc="http://creativecommons.org/ns#"
   xmlns:rdf="http://www.w3.org/1999/02/22-rdf-syntax-ns#"
   xmlns:svg="http://www.w3.org/2000/svg"
   xmlns="http://www.w3.org/2000/svg"
   xmlns:sodipodi="http://sodipodi.sourceforge.net/DTD/sodipodi-0.dtd"
   xmlns:inkscape="http://www.inkscape.org/namespaces/inkscape"
   version="1.1"
   id="圖層_1"
   x="0"
   y="0"
   viewBox="0 0 128 128"
   xml:space="preserve"
   sodipodi:docname="favicon.svg"
   inkscape:version="0.92.3 (2405546, 2018-03-11)"
   width="128"
   height="128"
   inkscape:export-filename="C:\Users\Bastien\Documents\WebProjects\TP_WEB\2019-2020\TP08 - Fireblog\images\favicon.png"
   inkscape:export-xdpi="96"
   inkscape:export-ydpi="96"><defs
     id="defs13" /><sodipodi:namedview
     pagecolor="#ffffff"
     bordercolor="#666666"
     borderopacity="1"
     objecttolerance="10"
     gridtolerance="10"
     guidetolerance="10"
     inkscape:pageopacity="0"
     inkscape:pageshadow="2"
     inkscape:window-width="1920"
     inkscape:window-height="1017"
     id="namedview11"
     showgrid="false"
     inkscape:zoom="3.6704354"
     inkscape:cx="86.853755"
     inkscape:cy="67.736934"
     inkscape:window-x="-8"
     inkscape:window-y="-8"
     inkscape:window-maximized="1"
     inkscape:current-layer="layer2"
     fit-margin-top="0"
     fit-margin-left="0"
     fit-margin-right="0"
     fit-margin-bottom="0" /><metadata
     id="metadata8"><d:name>fire</d:name><d:tags>flame,flare,burn,scorch,fire,weather</d:tags><d:license>pro</d:license><d:slug>4gk7gh</d:slug><rdf:RDF><cc:Work
         rdf:about=""><dc:format>image/svg+xml</dc:format><dc:type
           rdf:resource="http://purl.org/dc/dcmitype/StillImage" /><dc:title /></cc:Work></rdf:RDF></metadata><g
     inkscape:groupmode="layer"
     id="layer1"
     inkscape:label="Background"
     transform="translate(13.590796,150.31725)"
     style="display:none"><rect
       style="color:#000000;clip-rule:nonzero;display:inline;overflow:visible;visibility:visible;opacity:1;isolation:auto;mix-blend-mode:normal;color-interpolation:sRGB;color-interpolation-filters:linearRGB;solid-color:#000000;solid-opacity:1;fill:#ffc900;fill-opacity:1;fill-rule:nonzero;stroke:none;stroke-width:2;stroke-linecap:round;stroke-linejoin:miter;stroke-miterlimit:4;stroke-dasharray:none;stroke-dashoffset:0;stroke-opacity:1;paint-order:normal;color-rendering:auto;image-rendering:auto;shape-rendering:auto;text-rendering:auto;enable-background:accumulate"
       id="rect839"
       width="128"
       height="128"
       x="-13.590796"
       y="-150.31725" /></g><g
     inkscape:groupmode="layer"
     id="layer2"
     inkscape:label="Flamme"
     transform="translate(13.590796,150.31725)"><g
       id="g841"
       transform="matrix(1.5164793,0,0,1.5164793,-191.1718,-0.72189406)"
       style="stroke-width:0.6594221"><path
         d="m 148.73323,-17.219109 c -6.86185,-1.285871 -12.86442,-6.798879 -17.53568,-11.603982 -8.20052,-8.435414 -6.60069,-27.803225 -2.54121,-31.318675 -0.26948,1.0481 0.45082,12.0215 5.9672,12.04788 3.65794,0.0189 1.24206,-4.34914 0.74778,-9.67283 -1.26312,-11.91144 7.02164,-18.01115 14.20584,-22.44347 -4.7489,21.2016 13.34291,15.59036 11.74968,-1.28584 -0.0941,-3.49016 -1.40995,-6.88845 -3.0079,-10.10305 -0.56398,-1.10215 -1.87997,-3.12276 -2.53795,-4.59228 39.92058,12.71709 17.101,37.60426 22.56461,45.2829 1.33232,1.87245 6.60556,1.18677 9.94042,-5.13528 4.41789,6.06183 6.22198,16.521256 3.12004,23.04234 -3.10189,6.521045 -9.52312,12.866608 -17.51293,14.795338 -7.0498,1.561399 -18.29809,2.272782 -25.1599,0.986949 z"
         id="path2-8"
         inkscape:connector-curvature="0"
         style="display:inline;opacity:1;fill:#ff0000;fill-opacity:1;stroke-width:0.42875603"
         sodipodi:nodetypes="sscscccccscscs" /><path
         sodipodi:nodetypes="ccccscscscscsc"
         style="display:inline;opacity:1;fill:#ff6600;fill-opacity:1;stroke-width:0.42875606"
         inkscape:connector-curvature="0"
         id="path820-4"
         d="m 150.31277,-17.601069 c -12.77416,2.010936 -25.03442,-19.288516 -21.15201,-29.870057 0.49667,-1.6105 -0.0983,0.0427 2.20187,3.168186 4.40315,4.357682 7.63877,1.177021 8.97041,-2.363186 1.66091,-4.42073 -0.91476,-6.92863 -1.10502,-11.73646 -0.24416,-6.16535 1.79864,-11.24383 6.13474,-14.46712 -0.48276,9.83569 7.28239,12.52709 12.84677,9.33642 10.70475,-6.13818 8.49127,-20.48648 6.76543,-23.33874 17.37857,6.5136 7.93644,27.48098 7.82373,35.16779 -0.0933,6.362758 12.40914,9.978481 15.27606,1.62969 3.40513,5.720923 2.65262,14.841452 -0.18709,20.99577 -2.73713,5.932196 -8.45223,9.613002 -14.09934,11.433298 -4.98274,1.473562 -23.47566,-4.847358 -23.47566,0.04422 z" /><path
         d="m 179.96751,-20.921573 c 5.08713,-5.61033 7.56782,-15.221442 4.442,-21.246652 -19.82097,20.039207 -24.32538,-5.269681 -13.58524,-19.701691 -22.14856,7.35643 -16.18368,20.664035 -23.62685,24.593987 -3.63613,1.919811 -4.5809,-1.710614 -3.76475,-6.415937 -6.01833,5.066948 -7.0489,11.731843 -4.71492,19.776605 1.68604,5.472567 6.58216,6.343144 10.99714,7.159295 6.9806,1.00456 24.3394,1.987616 30.25262,-4.165607 z"
         id="path828-5"
         inkscape:connector-curvature="0"
         style="display:inline;opacity:1;fill:#ffc900;fill-opacity:1;stroke-width:0.428756"
         sodipodi:nodetypes="cccscccc" /><path
         sodipodi:nodetypes="csccccc"
         style="display:inline;opacity:1;fill:#fceb81;fill-opacity:1;stroke-width:0.42875606"
         inkscape:connector-curvature="0"
         id="path834-2"
         d="m 162.50772,-51.479736 c -7.08533,6.324929 -7.20779,9.123518 -8.04813,12.254025 -1.60924,5.994897 -11.04911,10.444006 -13.32703,1.918677 -2.91042,6.542173 1.53158,18.772006 8.50651,20.505714 2.795,0.61474 14.79912,1.451754 22.33414,-0.263812 7.05777,-2.459867 10.52972,-9.898658 9.67759,-17.645518 -15.17586,12.611263 -24.19261,-3.351042 -19.14308,-16.769086 z" /></g></g></svg>